<svg xmlns="http://www.w3.org/2000/svg" xmlns:xlink="http://www.w3.org/1999/xlink" contentStyleType="text/css" data-diagram-type="SEQUENCE" height="1566px" preserveAspectRatio="none" style="width:1253px;height:1566px;background:#FFFFFF;" version="1.1" viewBox="0 0 1253 1566" width="1253px" zoomAndPan="magnify"><title>Dev Jokes Likeboard - sekvensdiagram for GET /, GET /random, PUT /:id/like</title><defs/><g><text fill="#000000" font-family="sans-serif" font-size="14" font-weight="bold" lengthAdjust="spacing" textLength="594.918" x="325.3489" y="27.9951">Dev Jokes Likeboard - sekvensdiagram for GET /, GET /random, PUT /:id/like</text><rect fill="none" height="279.3281" style="stroke:#000000;stroke-width:1.5;" width="1093.2788" x="133.3369" y="267.2578"/><rect fill="none" height="279.3281" style="stroke:#000000;stroke-width:1.5;" width="1093.2788" x="133.3369" y="603.7188"/><rect fill="none" height="528.1953" style="stroke:#000000;stroke-width:1.5;" width="1113.2788" x="123.3369" y="940.1797"/><rect fill="none" height="323.2656" style="stroke:#000000;stroke-width:1.5;" width="1093.2788" x="133.3369" y="1138.1094"/><g><title>User</title><rect fill="#000000" fill-opacity="0.00000" height="1366.7813" width="8" x="19.9551" y="118.5938"/><line style="stroke:#181818;stroke-width:0.5;stroke-dasharray:5,5;" x1="23" x2="23" y1="118.5938" y2="1485.375"/></g><g><title>Browser</title><rect fill="#000000" fill-opacity="0.00000" height="1366.7813" width="8" x="174.8564" y="118.5938"/><line style="stroke:#181818;stroke-width:0.5;stroke-dasharray:5,5;" x1="178.3369" x2="178.3369" y1="118.5938" y2="1485.375"/></g><g><title>Frontend</title><rect fill="#000000" fill-opacity="0.00000" height="1366.7813" width="8" x="453.9307" y="118.5938"/><line style="stroke:#181818;stroke-width:0.5;stroke-dasharray:5,5;" x1="457.376" x2="457.376" y1="118.5938" y2="1485.375"/></g><g><title>Express Router</title><rect fill="#000000" fill-opacity="0.00000" height="1366.7813" width="8" x="625.5454" y="118.5938"/><line style="stroke:#181818;stroke-width:0.5;stroke-dasharray:5,5;" x1="629.3208" x2="629.3208" y1="118.5938" y2="1485.375"/></g><g><title>Controller</title><rect fill="#000000" fill-opacity="0.00000" height="1366.7813" width="8" x="891.1563" y="118.5938"/><line style="stroke:#181818;stroke-width:0.5;stroke-dasharray:5,5;" x1="894.52" x2="894.52" y1="118.5938" y2="1485.375"/></g><g><title>Service</title><rect fill="#000000" fill-opacity="0.00000" height="1366.7813" width="8" x="1022.1689" y="118.5938"/><line style="stroke:#181818;stroke-width:0.5;stroke-dasharray:5,5;" x1="1025.2485" x2="1025.2485" y1="118.5938" y2="1485.375"/></g><g><title>Repo.Data</title><rect fill="#000000" fill-opacity="0.00000" height="1366.7813" width="8" x="1167.6694" y="118.5938"/><line style="stroke:#181818;stroke-width:0.5;stroke-dasharray:5,5;" x1="1170.7231" x2="1170.7231" y1="118.5938" y2="1485.375"/></g><g class="participant participant-head" data-participant="U"><text fill="#000000" font-family="sans-serif" font-size="14" lengthAdjust="spacing" textLength="31.9102" x="5" y="115.292">User</text><ellipse cx="23.9551" cy="50.7969" fill="#E2E2F0" rx="8" ry="8" style="stroke:#181818;stroke-width:0.5;"/><path d="M23.9551,58.7969 L23.9551,85.7969 M10.9551,66.7969 L36.9551,66.7969 M23.9551,85.7969 L10.9551,100.7969 M23.9551,85.7969 L36.9551,100.7969" fill="none" style="stroke:#181818;stroke-width:0.5;"/></g><g class="participant participant-tail" data-participant="U"><text fill="#000000" font-family="sans-serif" font-size="14" lengthAdjust="spacing" textLength="31.9102" x="5" y="1497.3701">User</text><ellipse cx="23.9551" cy="1509.1719" fill="#E2E2F0" rx="8" ry="8" style="stroke:#181818;stroke-width:0.5;"/><path d="M23.9551,1517.1719 L23.9551,1544.1719 M10.9551,1525.1719 L36.9551,1525.1719 M23.9551,1544.1719 L10.9551,1559.1719 M23.9551,1544.1719 L36.9551,1559.1719" fill="none" style="stroke:#181818;stroke-width:0.5;"/></g><g class="participant participant-head" data-participant="B"><rect fill="#E2E2F0" height="46.5938" rx="2.5" ry="2.5" style="stroke:#181818;stroke-width:0.5;" width="71.0391" x="143.3369" y="71"/><text fill="#000000" font-family="sans-serif" font-size="14" lengthAdjust="spacing" textLength="57.0391" x="150.3369" y="90.9951">Browser</text><text fill="#000000" font-family="sans-serif" font-size="14" lengthAdjust="spacing" textLength="25.2998" x="166.2065" y="107.292">(UI)</text></g><g class="participant participant-tail" data-participant="B"><rect fill="#E2E2F0" height="46.5938" rx="2.5" ry="2.5" style="stroke:#181818;stroke-width:0.5;" width="71.0391" x="143.3369" y="1484.375"/><text fill="#000000" font-family="sans-serif" font-size="14" lengthAdjust="spacing" textLength="57.0391" x="150.3369" y="1504.3701">Browser</text><text fill="#000000" font-family="sans-serif" font-size="14" lengthAdjust="spacing" textLength="25.2998" x="166.2065" y="1520.667">(UI)</text></g><g class="participant participant-head" data-participant="FE"><rect fill="#E2E2F0" height="46.5938" rx="2.5" ry="2.5" style="stroke:#181818;stroke-width:0.5;" width="77.1094" x="419.376" y="71"/><text fill="#000000" font-family="sans-serif" font-size="14" lengthAdjust="spacing" textLength="63.1094" x="426.376" y="90.9951">Frontend</text><text fill="#000000" font-family="sans-serif" font-size="14" lengthAdjust="spacing" textLength="41.9863" x="436.9375" y="107.292">app.js</text></g><g class="participant participant-tail" data-participant="FE"><rect fill="#E2E2F0" height="46.5938" rx="2.5" ry="2.5" style="stroke:#181818;stroke-width:0.5;" width="77.1094" x="419.376" y="1484.375"/><text fill="#000000" font-family="sans-serif" font-size="14" lengthAdjust="spacing" textLength="63.1094" x="426.376" y="1504.3701">Frontend</text><text fill="#000000" font-family="sans-serif" font-size="14" lengthAdjust="spacing" textLength="41.9863" x="436.9375" y="1520.667">app.js</text></g><g class="participant participant-head" data-participant="R"><rect fill="#E2E2F0" height="46.5938" rx="2.5" ry="2.5" style="stroke:#181818;stroke-width:0.5;" width="120.4492" x="569.3208" y="71"/><text fill="#000000" font-family="sans-serif" font-size="14" lengthAdjust="spacing" textLength="106.4492" x="576.3208" y="90.9951">Express Router</text><text fill="#000000" font-family="sans-serif" font-size="14" lengthAdjust="spacing" textLength="88.6621" x="585.2144" y="107.292">(jokeRoutes)</text></g><g class="participant participant-tail" data-participant="R"><rect fill="#E2E2F0" height="46.5938" rx="2.5" ry="2.5" style="stroke:#181818;stroke-width:0.5;" width="120.4492" x="569.3208" y="1484.375"/><text fill="#000000" font-family="sans-serif" font-size="14" lengthAdjust="spacing" textLength="106.4492" x="576.3208" y="1504.3701">Express Router</text><text fill="#000000" font-family="sans-serif" font-size="14" lengthAdjust="spacing" textLength="88.6621" x="585.2144" y="1520.667">(jokeRoutes)</text></g><g class="participant participant-head" data-participant="C"><rect fill="#E2E2F0" height="46.5938" rx="2.5" ry="2.5" style="stroke:#181818;stroke-width:0.5;" width="123.2725" x="833.52" y="71"/><text fill="#000000" font-family="sans-serif" font-size="14" lengthAdjust="spacing" textLength="69.1729" x="860.5698" y="90.9951">Controller</text><text fill="#000000" font-family="sans-serif" font-size="14" lengthAdjust="spacing" textLength="109.2725" x="840.52" y="107.292">(jokeController)</text></g><g class="participant participant-tail" data-participant="C"><rect fill="#E2E2F0" height="46.5938" rx="2.5" ry="2.5" style="stroke:#181818;stroke-width:0.5;" width="123.2725" x="833.52" y="1484.375"/><text fill="#000000" font-family="sans-serif" font-size="14" lengthAdjust="spacing" textLength="69.1729" x="860.5698" y="1504.3701">Controller</text><text fill="#000000" font-family="sans-serif" font-size="14" lengthAdjust="spacing" textLength="109.2725" x="840.52" y="1520.667">(jokeController)</text></g><g class="participant participant-head" data-participant="S"><rect fill="#E2E2F0" height="46.5938" rx="2.5" ry="2.5" style="stroke:#181818;stroke-width:0.5;" width="105.8408" x="973.2485" y="71"/><text fill="#000000" font-family="sans-serif" font-size="14" lengthAdjust="spacing" textLength="51.7412" x="1000.2983" y="90.9951">Service</text><text fill="#000000" font-family="sans-serif" font-size="14" lengthAdjust="spacing" textLength="91.8408" x="980.2485" y="107.292">(jokeService)</text></g><g class="participant participant-tail" data-participant="S"><rect fill="#E2E2F0" height="46.5938" rx="2.5" ry="2.5" style="stroke:#181818;stroke-width:0.5;" width="105.8408" x="973.2485" y="1484.375"/><text fill="#000000" font-family="sans-serif" font-size="14" lengthAdjust="spacing" textLength="51.7412" x="1000.2983" y="1504.3701">Service</text><text fill="#000000" font-family="sans-serif" font-size="14" lengthAdjust="spacing" textLength="91.8408" x="980.2485" y="1520.667">(jokeService)</text></g><g class="participant participant-head" data-participant="D"><rect fill="#E2E2F0" height="46.5938" rx="2.5" ry="2.5" style="stroke:#181818;stroke-width:0.5;" width="89.8926" x="1126.7231" y="71"/><text fill="#000000" font-family="sans-serif" font-size="14" lengthAdjust="spacing" textLength="73.9375" x="1134.7007" y="90.9951">Repo/Data</text><text fill="#000000" font-family="sans-serif" font-size="14" lengthAdjust="spacing" textLength="75.8926" x="1133.7231" y="107.292">(jokeRepo)</text></g><g class="participant participant-tail" data-participant="D"><rect fill="#E2E2F0" height="46.5938" rx="2.5" ry="2.5" style="stroke:#181818;stroke-width:0.5;" width="89.8926" x="1126.7231" y="1484.375"/><text fill="#000000" font-family="sans-serif" font-size="14" lengthAdjust="spacing" textLength="73.9375" x="1134.7007" y="1504.3701">Repo/Data</text><text fill="#000000" font-family="sans-serif" font-size="14" lengthAdjust="spacing" textLength="75.8926" x="1133.7231" y="1520.667">(jokeRepo)</text></g><rect fill="#EEEEEE" height="3" style="stroke:#EEEEEE;stroke-width:1;" width="1246.6157" x="0" y="149.1602"/><line style="stroke:#000000;stroke-width:1;" x1="0" x2="1246.6157" y1="149.1602" y2="149.1602"/><line style="stroke:#000000;stroke-width:1;" x1="0" x2="1246.6157" y1="152.1602" y2="152.1602"/><rect fill="#EEEEEE" height="23.1328" style="stroke:#000000;stroke-width:2;" width="128.6323" x="558.9917" y="138.5938"/><text fill="#000000" font-family="sans-serif" font-size="13" font-weight="bold" lengthAdjust="spacing" textLength="110.1064" x="564.9917" y="154.6606">Start i browser</text><g class="message" data-participant-1="U" data-participant-2="B"><polygon fill="#181818" points="166.8564,203.9922,176.8564,207.9922,166.8564,211.9922,170.8564,207.9922" style="stroke:#181818;stroke-width:1;"/><line style="stroke:#181818;stroke-width:1;" x1="23.9551" x2="172.8564" y1="207.9922" y2="207.9922"/><text fill="#000000" font-family="sans-serif" font-size="13" lengthAdjust="spacing" textLength="91.1206" x="30.9551" y="187.7935">Klik/&#229;bn siden</text><text fill="#000000" font-family="sans-serif" font-size="13" lengthAdjust="spacing" textLength="130.9014" x="30.9551" y="202.9263">(bruger interagerer)</text></g><g class="message" data-participant-1="B" data-participant-2="FE"><polygon fill="#181818" points="445.9307,248.2578,455.9307,252.2578,445.9307,256.2578,449.9307,252.2578" style="stroke:#181818;stroke-width:1;"/><line style="stroke:#181818;stroke-width:1;" x1="178.8564" x2="451.9307" y1="252.2578" y2="252.2578"/><text fill="#000000" font-family="sans-serif" font-size="13" lengthAdjust="spacing" textLength="196.4854" x="185.8564" y="232.0591">K&#248;rer JS (DOMContentLoaded)</text><text fill="#000000" font-family="sans-serif" font-size="13" lengthAdjust="spacing" textLength="96.9541" x="185.8564" y="247.1919">init/loadJokes()</text></g><path d="M133.3369,267.2578 L197.7798,267.2578 L197.7798,274.3906 L187.7798,284.3906 L133.3369,284.3906 L133.3369,267.2578" fill="#EEEEEE" style="stroke:#000000;stroke-width:1.5;"/><rect fill="none" height="279.3281" style="stroke:#000000;stroke-width:1.5;" width="1093.2788" x="133.3369" y="267.2578"/><text fill="#000000" font-family="sans-serif" font-size="13" font-weight="bold" lengthAdjust="spacing" textLength="19.4429" x="148.3369" y="280.3247">alt</text><text fill="#000000" font-family="sans-serif" font-size="11" font-weight="bold" lengthAdjust="spacing" textLength="244.5889" x="212.7798" y="279.4683">[GET /api/jokes  (router.get('/', getAll))]</text><g class="message" data-participant-1="FE" data-participant-2="R"><polygon fill="#181818" points="617.5454,301.5234,627.5454,305.5234,617.5454,309.5234,621.5454,305.5234" style="stroke:#181818;stroke-width:1;"/><line style="stroke:#181818;stroke-width:1;" x1="457.9307" x2="623.5454" y1="305.5234" y2="305.5234"/><text fill="#000000" font-family="sans-serif" font-size="13" lengthAdjust="spacing" textLength="92.8154" x="464.9307" y="300.4575">GET /api/jokes</text></g><g class="message" data-participant-1="R" data-participant-2="C"><polygon fill="#181818" points="883.1563,330.6563,893.1563,334.6563,883.1563,338.6563,887.1563,334.6563" style="stroke:#181818;stroke-width:1;"/><line style="stroke:#181818;stroke-width:1;" x1="629.5454" x2="889.1563" y1="334.6563" y2="334.6563"/><text fill="#000000" font-family="sans-serif" font-size="13" lengthAdjust="spacing" textLength="93.4502" x="636.5454" y="329.5903">getAll(req,res)</text></g><g class="message" data-participant-1="C" data-participant-2="S"><polygon fill="#181818" points="1014.1689,359.7891,1024.1689,363.7891,1014.1689,367.7891,1018.1689,363.7891" style="stroke:#181818;stroke-width:1;"/><line style="stroke:#181818;stroke-width:1;" x1="895.1563" x2="1020.1689" y1="363.7891" y2="363.7891"/><text fill="#000000" font-family="sans-serif" font-size="13" lengthAdjust="spacing" textLength="29.2373" x="902.1563" y="358.7231">list()</text></g><g class="message" data-participant-1="S" data-participant-2="D"><polygon fill="#181818" points="1159.6694,388.9219,1169.6694,392.9219,1159.6694,396.9219,1163.6694,392.9219" style="stroke:#181818;stroke-width:1;"/><line style="stroke:#181818;stroke-width:1;" x1="1026.1689" x2="1165.6694" y1="392.9219" y2="392.9219"/><text fill="#000000" font-family="sans-serif" font-size="13" lengthAdjust="spacing" textLength="50.9399" x="1033.1689" y="387.856">findAll()</text></g><g class="message" data-participant-1="D" data-participant-2="S"><polygon fill="#181818" points="1037.1689,418.0547,1027.1689,422.0547,1037.1689,426.0547,1033.1689,422.0547" style="stroke:#181818;stroke-width:1;"/><line style="stroke:#181818;stroke-width:1;stroke-dasharray:2,2;" x1="1031.1689" x2="1170.6694" y1="422.0547" y2="422.0547"/><text fill="#000000" font-family="sans-serif" font-size="13" lengthAdjust="spacing" textLength="99.1313" x="1043.1689" y="416.9888">[array af jokes]</text></g><g class="message" data-participant-1="S" data-participant-2="C"><polygon fill="#181818" points="906.1563,447.1875,896.1563,451.1875,906.1563,455.1875,902.1563,451.1875" style="stroke:#181818;stroke-width:1;"/><line style="stroke:#181818;stroke-width:1;stroke-dasharray:2,2;" x1="900.1563" x2="1025.1689" y1="451.1875" y2="451.1875"/><text fill="#000000" font-family="sans-serif" font-size="13" lengthAdjust="spacing" textLength="99.1313" x="912.1563" y="446.1216">[array af jokes]</text></g><g class="message" data-participant-1="C" data-participant-2="R"><polygon fill="#181818" points="640.5454,476.3203,630.5454,480.3203,640.5454,484.3203,636.5454,480.3203" style="stroke:#181818;stroke-width:1;"/><line style="stroke:#181818;stroke-width:1;stroke-dasharray:2,2;" x1="634.5454" x2="894.1563" y1="480.3203" y2="480.3203"/><text fill="#000000" font-family="sans-serif" font-size="13" lengthAdjust="spacing" textLength="83.5098" x="646.5454" y="475.2544">res.json([...])</text></g><g class="message" data-participant-1="R" data-participant-2="FE"><polygon fill="#181818" points="468.9307,505.4531,458.9307,509.4531,468.9307,513.4531,464.9307,509.4531" style="stroke:#181818;stroke-width:1;"/><line style="stroke:#181818;stroke-width:1;stroke-dasharray:2,2;" x1="462.9307" x2="628.5454" y1="509.4531" y2="509.4531"/><text fill="#000000" font-family="sans-serif" font-size="13" lengthAdjust="spacing" textLength="98.9028" x="474.9307" y="504.3872">200 OK + JSON</text></g><g class="message" data-participant-1="FE" data-participant-2="B"><polygon fill="#181818" points="189.8564,534.5859,179.8564,538.5859,189.8564,542.5859,185.8564,538.5859" style="stroke:#181818;stroke-width:1;"/><line style="stroke:#181818;stroke-width:1;" x1="183.8564" x2="456.9307" y1="538.5859" y2="538.5859"/><text fill="#000000" font-family="sans-serif" font-size="13" lengthAdjust="spacing" textLength="121.4243" x="195.8564" y="533.52">Render liste i DOM</text></g><rect fill="#EEEEEE" height="3" style="stroke:#EEEEEE;stroke-width:1;" width="1246.6157" x="0" y="574.1523"/><line style="stroke:#000000;stroke-width:1;" x1="0" x2="1246.6157" y1="574.1523" y2="574.1523"/><line style="stroke:#000000;stroke-width:1;" x1="0" x2="1246.6157" y1="577.1523" y2="577.1523"/><rect fill="#EEEEEE" height="23.1328" style="stroke:#000000;stroke-width:2;" width="173.2944" x="536.6606" y="563.5859"/><text fill="#000000" font-family="sans-serif" font-size="13" font-weight="bold" lengthAdjust="spacing" textLength="154.7686" x="542.6606" y="579.6528">Bonus: Tilf&#230;ldig joke</text><path d="M133.3369,603.7188 L197.7798,603.7188 L197.7798,610.8516 L187.7798,620.8516 L133.3369,620.8516 L133.3369,603.7188" fill="#EEEEEE" style="stroke:#000000;stroke-width:1.5;"/><rect fill="none" height="279.3281" style="stroke:#000000;stroke-width:1.5;" width="1093.2788" x="133.3369" y="603.7188"/><text fill="#000000" font-family="sans-serif" font-size="13" font-weight="bold" lengthAdjust="spacing" textLength="19.4429" x="148.3369" y="616.7856">alt</text><text fill="#000000" font-family="sans-serif" font-size="11" font-weight="bold" lengthAdjust="spacing" textLength="378.313" x="212.7798" y="615.9292">[GET /api/jokes/random  (router.get('/random', getRandom))]</text><g class="message" data-participant-1="FE" data-participant-2="R"><polygon fill="#181818" points="617.5454,637.9844,627.5454,641.9844,617.5454,645.9844,621.5454,641.9844" style="stroke:#181818;stroke-width:1;"/><line style="stroke:#181818;stroke-width:1;" x1="457.9307" x2="623.5454" y1="641.9844" y2="641.9844"/><text fill="#000000" font-family="sans-serif" font-size="13" lengthAdjust="spacing" textLength="147.6147" x="464.9307" y="636.9185">GET /api/jokes/random</text></g><g class="message" data-participant-1="R" data-participant-2="C"><polygon fill="#181818" points="883.1563,667.1172,893.1563,671.1172,883.1563,675.1172,887.1563,671.1172" style="stroke:#181818;stroke-width:1;"/><line style="stroke:#181818;stroke-width:1;" x1="629.5454" x2="889.1563" y1="671.1172" y2="671.1172"/><text fill="#000000" font-family="sans-serif" font-size="13" lengthAdjust="spacing" textLength="131.4409" x="636.5454" y="666.0513">getRandom(req,res)</text></g><g class="message" data-participant-1="C" data-participant-2="S"><polygon fill="#181818" points="1014.1689,696.25,1024.1689,700.25,1014.1689,704.25,1018.1689,700.25" style="stroke:#181818;stroke-width:1;"/><line style="stroke:#181818;stroke-width:1;" x1="895.1563" x2="1020.1689" y1="700.25" y2="700.25"/><text fill="#000000" font-family="sans-serif" font-size="13" lengthAdjust="spacing" textLength="60.563" x="902.1563" y="695.1841">random()</text></g><g class="message" data-participant-1="S" data-participant-2="D"><polygon fill="#181818" points="1159.6694,725.3828,1169.6694,729.3828,1159.6694,733.3828,1163.6694,729.3828" style="stroke:#181818;stroke-width:1;"/><line style="stroke:#181818;stroke-width:1;" x1="1026.1689" x2="1165.6694" y1="729.3828" y2="729.3828"/><text fill="#000000" font-family="sans-serif" font-size="13" lengthAdjust="spacing" textLength="88.9307" x="1033.1689" y="724.3169">findRandom()</text></g><g class="message" data-participant-1="D" data-participant-2="S"><polygon fill="#181818" points="1037.1689,754.5156,1027.1689,758.5156,1037.1689,762.5156,1033.1689,758.5156" style="stroke:#181818;stroke-width:1;"/><line style="stroke:#181818;stroke-width:1;stroke-dasharray:2,2;" x1="1031.1689" x2="1170.6694" y1="758.5156" y2="758.5156"/><text fill="#000000" font-family="sans-serif" font-size="13" lengthAdjust="spacing" textLength="79.9805" x="1043.1689" y="753.4497">{joke} / null</text></g><g class="message" data-participant-1="S" data-participant-2="C"><polygon fill="#181818" points="906.1563,783.6484,896.1563,787.6484,906.1563,791.6484,902.1563,787.6484" style="stroke:#181818;stroke-width:1;"/><line style="stroke:#181818;stroke-width:1;stroke-dasharray:2,2;" x1="900.1563" x2="1025.1689" y1="787.6484" y2="787.6484"/><text fill="#000000" font-family="sans-serif" font-size="13" lengthAdjust="spacing" textLength="79.9805" x="912.1563" y="782.5825">{joke} / null</text></g><g class="message" data-participant-1="C" data-participant-2="R"><polygon fill="#181818" points="640.5454,812.7813,630.5454,816.7813,640.5454,820.7813,636.5454,816.7813" style="stroke:#181818;stroke-width:1;"/><line style="stroke:#181818;stroke-width:1;stroke-dasharray:2,2;" x1="634.5454" x2="894.1563" y1="816.7813" y2="816.7813"/><text fill="#000000" font-family="sans-serif" font-size="13" lengthAdjust="spacing" textLength="241.6108" x="646.5454" y="811.7153">200 OK + JSON (eller 404 hvis ingen)</text></g><g class="message" data-participant-1="R" data-participant-2="FE"><polygon fill="#181818" points="468.9307,841.9141,458.9307,845.9141,468.9307,849.9141,464.9307,845.9141" style="stroke:#181818;stroke-width:1;"/><line style="stroke:#181818;stroke-width:1;stroke-dasharray:2,2;" x1="462.9307" x2="628.5454" y1="845.9141" y2="845.9141"/><text fill="#000000" font-family="sans-serif" font-size="13" lengthAdjust="spacing" textLength="95.5068" x="474.9307" y="840.8481">JSON response</text></g><g class="message" data-participant-1="FE" data-participant-2="B"><polygon fill="#181818" points="189.8564,871.0469,179.8564,875.0469,189.8564,879.0469,185.8564,875.0469" style="stroke:#181818;stroke-width:1;"/><line style="stroke:#181818;stroke-width:1;" x1="183.8564" x2="456.9307" y1="875.0469" y2="875.0469"/><text fill="#000000" font-family="sans-serif" font-size="13" lengthAdjust="spacing" textLength="130.2793" x="195.8564" y="869.981">Vis random joke i UI</text></g><rect fill="#EEEEEE" height="3" style="stroke:#EEEEEE;stroke-width:1;" width="1246.6157" x="0" y="910.6133"/><line style="stroke:#000000;stroke-width:1;" x1="0" x2="1246.6157" y1="910.6133" y2="910.6133"/><line style="stroke:#000000;stroke-width:1;" x1="0" x2="1246.6157" y1="913.6133" y2="913.6133"/><rect fill="#EEEEEE" height="23.1328" style="stroke:#000000;stroke-width:2;" width="106.7012" x="569.9573" y="900.0469"/><text fill="#000000" font-family="sans-serif" font-size="13" font-weight="bold" lengthAdjust="spacing" textLength="88.1753" x="575.9573" y="916.1138">Like en joke</text><path d="M123.3369,940.1797 L187.7798,940.1797 L187.7798,947.3125 L177.7798,957.3125 L123.3369,957.3125 L123.3369,940.1797" fill="#EEEEEE" style="stroke:#000000;stroke-width:1.5;"/><rect fill="none" height="528.1953" style="stroke:#000000;stroke-width:1.5;" width="1113.2788" x="123.3369" y="940.1797"/><text fill="#000000" font-family="sans-serif" font-size="13" font-weight="bold" lengthAdjust="spacing" textLength="19.4429" x="138.3369" y="953.2466">alt</text><text fill="#000000" font-family="sans-serif" font-size="11" font-weight="bold" lengthAdjust="spacing" textLength="344.4966" x="202.7798" y="952.3901">[PUT /api/jokes/:id/like  (router.put('/:id/like', likeOne))]</text><g class="message" data-participant-1="FE" data-participant-2="R"><polygon fill="#181818" points="617.5454,974.4453,627.5454,978.4453,617.5454,982.4453,621.5454,978.4453" style="stroke:#181818;stroke-width:1;"/><line style="stroke:#181818;stroke-width:1;" x1="457.9307" x2="623.5454" y1="978.4453" y2="978.4453"/><text fill="#000000" font-family="sans-serif" font-size="13" lengthAdjust="spacing" textLength="139.9341" x="464.9307" y="973.3794">PUT /api/jokes/42/like</text></g><g class="message" data-participant-1="R" data-participant-2="C"><polygon fill="#181818" points="883.1563,1003.5781,893.1563,1007.5781,883.1563,1011.5781,887.1563,1007.5781" style="stroke:#181818;stroke-width:1;"/><line style="stroke:#181818;stroke-width:1;" x1="629.5454" x2="889.1563" y1="1007.5781" y2="1007.5781"/><text fill="#000000" font-family="sans-serif" font-size="13" lengthAdjust="spacing" textLength="105.2061" x="636.5454" y="1002.5122">likeOne(req,res)</text></g><g class="message" data-participant-1="C" data-participant-2="C"><line style="stroke:#181818;stroke-width:1;" x1="895.1563" x2="937.1563" y1="1051.8438" y2="1051.8438"/><line style="stroke:#181818;stroke-width:1;" x1="937.1563" x2="937.1563" y1="1051.8438" y2="1064.8438"/><line style="stroke:#181818;stroke-width:1;" x1="896.1563" x2="937.1563" y1="1064.8438" y2="1064.8438"/><polygon fill="#181818" points="906.1563,1060.8438,896.1563,1064.8438,906.1563,1068.8438,902.1563,1064.8438" style="stroke:#181818;stroke-width:1;"/><text fill="#000000" font-family="sans-serif" font-size="13" lengthAdjust="spacing" textLength="115.21" x="902.1563" y="1031.645">parse id &amp; valider</text><text fill="#000000" font-family="sans-serif" font-size="13" lengthAdjust="spacing" textLength="117.0127" x="902.1563" y="1046.7778">(400 hvis ikke tal)</text></g><g class="message" data-participant-1="C" data-participant-2="S"><polygon fill="#181818" points="1014.1689,1089.9766,1024.1689,1093.9766,1014.1689,1097.9766,1018.1689,1093.9766" style="stroke:#181818;stroke-width:1;"/><line style="stroke:#181818;stroke-width:1;" x1="895.1563" x2="1020.1689" y1="1093.9766" y2="1093.9766"/><text fill="#000000" font-family="sans-serif" font-size="13" lengthAdjust="spacing" textLength="44.7573" x="902.1563" y="1088.9106">like(id)</text></g><g class="message" data-participant-1="S" data-participant-2="D"><polygon fill="#181818" points="1159.6694,1119.1094,1169.6694,1123.1094,1159.6694,1127.1094,1163.6694,1123.1094" style="stroke:#181818;stroke-width:1;"/><line style="stroke:#181818;stroke-width:1;" x1="1026.1689" x2="1165.6694" y1="1123.1094" y2="1123.1094"/><text fill="#000000" font-family="sans-serif" font-size="13" lengthAdjust="spacing" textLength="121.5005" x="1033.1689" y="1118.0435">incrementLikes(id)</text></g><path d="M133.3369,1138.1094 L197.7798,1138.1094 L197.7798,1145.2422 L187.7798,1155.2422 L133.3369,1155.2422 L133.3369,1138.1094" fill="#EEEEEE" style="stroke:#000000;stroke-width:1.5;"/><rect fill="none" height="323.2656" style="stroke:#000000;stroke-width:1.5;" width="1093.2788" x="133.3369" y="1138.1094"/><text fill="#000000" font-family="sans-serif" font-size="13" font-weight="bold" lengthAdjust="spacing" textLength="19.4429" x="148.3369" y="1151.1763">alt</text><text fill="#000000" font-family="sans-serif" font-size="11" font-weight="bold" lengthAdjust="spacing" textLength="63.7979" x="212.7798" y="1150.3198">[id findes]</text><g class="message" data-participant-1="D" data-participant-2="S"><polygon fill="#181818" points="1037.1689,1172.375,1027.1689,1176.375,1037.1689,1180.375,1033.1689,1176.375" style="stroke:#181818;stroke-width:1;"/><line style="stroke:#181818;stroke-width:1;stroke-dasharray:2,2;" x1="1031.1689" x2="1170.6694" y1="1176.375" y2="1176.375"/><text fill="#000000" font-family="sans-serif" font-size="13" lengthAdjust="spacing" textLength="81.3706" x="1043.1689" y="1171.3091">updatedJoke</text></g><g class="message" data-participant-1="S" data-participant-2="C"><polygon fill="#181818" points="906.1563,1201.5078,896.1563,1205.5078,906.1563,1209.5078,902.1563,1205.5078" style="stroke:#181818;stroke-width:1;"/><line style="stroke:#181818;stroke-width:1;stroke-dasharray:2,2;" x1="900.1563" x2="1025.1689" y1="1205.5078" y2="1205.5078"/><text fill="#000000" font-family="sans-serif" font-size="13" lengthAdjust="spacing" textLength="81.3706" x="912.1563" y="1200.4419">updatedJoke</text></g><g class="message" data-participant-1="C" data-participant-2="R"><polygon fill="#181818" points="640.5454,1230.6406,630.5454,1234.6406,640.5454,1238.6406,636.5454,1234.6406" style="stroke:#181818;stroke-width:1;"/><line style="stroke:#181818;stroke-width:1;stroke-dasharray:2,2;" x1="634.5454" x2="894.1563" y1="1234.6406" y2="1234.6406"/><text fill="#000000" font-family="sans-serif" font-size="13" lengthAdjust="spacing" textLength="157.0918" x="646.5454" y="1229.5747">200 OK + updated JSON</text></g><g class="message" data-participant-1="R" data-participant-2="FE"><polygon fill="#181818" points="468.9307,1259.7734,458.9307,1263.7734,468.9307,1267.7734,464.9307,1263.7734" style="stroke:#181818;stroke-width:1;"/><line style="stroke:#181818;stroke-width:1;stroke-dasharray:2,2;" x1="462.9307" x2="628.5454" y1="1263.7734" y2="1263.7734"/><text fill="#000000" font-family="sans-serif" font-size="13" lengthAdjust="spacing" textLength="98.9028" x="474.9307" y="1258.7075">200 OK + JSON</text></g><g class="message" data-participant-1="FE" data-participant-2="B"><polygon fill="#181818" points="189.8564,1288.9063,179.8564,1292.9063,189.8564,1296.9063,185.8564,1292.9063" style="stroke:#181818;stroke-width:1;"/><line style="stroke:#181818;stroke-width:1;" x1="183.8564" x2="456.9307" y1="1292.9063" y2="1292.9063"/><text fill="#000000" font-family="sans-serif" font-size="13" lengthAdjust="spacing" textLength="255.0742" x="195.8564" y="1287.8403">Opdat&#233;r DOM (fx hent igen / re-render)</text></g><line style="stroke:#000000;stroke-width:1;stroke-dasharray:2,2;" x1="133.3369" x2="1226.6157" y1="1301.9063" y2="1301.9063"/><text fill="#000000" font-family="sans-serif" font-size="11" font-weight="bold" lengthAdjust="spacing" textLength="93.4893" x="138.3369" y="1312.1167">[id findes ikke]</text><g class="message" data-participant-1="D" data-participant-2="S"><polygon fill="#181818" points="1037.1689,1332.8438,1027.1689,1336.8438,1037.1689,1340.8438,1033.1689,1336.8438" style="stroke:#181818;stroke-width:1;"/><line style="stroke:#181818;stroke-width:1;stroke-dasharray:2,2;" x1="1031.1689" x2="1170.6694" y1="1336.8438" y2="1336.8438"/><text fill="#000000" font-family="sans-serif" font-size="13" lengthAdjust="spacing" textLength="23.7021" x="1043.1689" y="1331.7778">null</text></g><g class="message" data-participant-1="S" data-participant-2="C"><polygon fill="#181818" points="906.1563,1361.9766,896.1563,1365.9766,906.1563,1369.9766,902.1563,1365.9766" style="stroke:#181818;stroke-width:1;"/><line style="stroke:#181818;stroke-width:1;stroke-dasharray:2,2;" x1="900.1563" x2="1025.1689" y1="1365.9766" y2="1365.9766"/><text fill="#000000" font-family="sans-serif" font-size="13" lengthAdjust="spacing" textLength="23.7021" x="912.1563" y="1360.9106">null</text></g><g class="message" data-participant-1="C" data-participant-2="R"><polygon fill="#181818" points="640.5454,1391.1094,630.5454,1395.1094,640.5454,1399.1094,636.5454,1395.1094" style="stroke:#181818;stroke-width:1;"/><line style="stroke:#181818;stroke-width:1;stroke-dasharray:2,2;" x1="634.5454" x2="894.1563" y1="1395.1094" y2="1395.1094"/><text fill="#000000" font-family="sans-serif" font-size="13" lengthAdjust="spacing" textLength="171.9644" x="646.5454" y="1390.0435">404 Not Found + { error }</text></g><g class="message" data-participant-1="R" data-participant-2="FE"><polygon fill="#181818" points="468.9307,1420.2422,458.9307,1424.2422,468.9307,1428.2422,464.9307,1424.2422" style="stroke:#181818;stroke-width:1;"/><line style="stroke:#181818;stroke-width:1;stroke-dasharray:2,2;" x1="462.9307" x2="628.5454" y1="1424.2422" y2="1424.2422"/><text fill="#000000" font-family="sans-serif" font-size="13" lengthAdjust="spacing" textLength="24.813" x="474.9307" y="1419.1763">404</text></g><g class="message" data-participant-1="FE" data-participant-2="B"><polygon fill="#181818" points="189.8564,1449.375,179.8564,1453.375,189.8564,1457.375,185.8564,1453.375" style="stroke:#181818;stroke-width:1;"/><line style="stroke:#181818;stroke-width:1;" x1="183.8564" x2="456.9307" y1="1453.375" y2="1453.375"/><text fill="#000000" font-family="sans-serif" font-size="13" lengthAdjust="spacing" textLength="120.7451" x="195.8564" y="1448.3091">Vis fejl/ignorer klik</text></g><!--SRC=[VPLBRjim48RtEiKWYqP6RIi8l0hW0lMhoADn8SVT95dG5ktGPaYLejmKGOxJ0hr1zxvOPqZPifGWYy3Ip4_orpSpZ1LMSXZm3LpeDS_WIgpvJ3EJG0ioljvmbIM2BGrxX8Ksy6Lu0r7J_nYc4ltOX6zJV3aJIIHnRH2mkKNXDEC6M0RJ86N6Yhb8cR9mr3Fw9sRkL3WzRnoHe5SLZ8nMbglaJh4qRQyofnaDgwBXKsfuba6iS-isMw5tzvBvJUEglezx6YtbNbi6lBvVrK-usOWvByJ5crTEgigOfpeQCCjs9l3T2mT1qEt2nA8Q1CpyTqEt6qoXzGbwS0QNo2lQ_fufo4J25UumC_aIHG8968PFQ2_eaNmq9Fts7qRWOWBXOForxpZPAyqIdZJkb532HXBVN1t31XP2MbyebefevQeBeN78sajkm-Fek0duy5dAHYC0EWIFYl6awYfCnPJfOyRBGyD_DB42jAfFgGccfCXiI949HGOOMGYLa9g20sWLkbjc3Fi5R05kztk_ejZ_ZMJV9SaMdeWTeLLusswtxnlUruxEwSa9Z2_X8_8PN- -_XZZ7s4x8ZVnnB0Mo2p3YojFJAi_Eu4R8nVQFJCJI7KjLUWslwFSwGn_r96Ft_2xCGbzZwXU-YTNhNuEDotZ9zfdEU848L2vb1MmzKrAjW8EGqrH0vwG33nkHOIykkQgXTaBqcMgLyGhgxxYYmEH02fYUxs7JrG9SLH2xkwE4ixj5IiXfJf1tSSHCFsF5Qv1h-tHE_MLqGBbOzuenvN2aCpIRm0VOC8d3IFT41xbu16iqP9ciTVkQXoAfb4MekU6FD9I2Hj1dwIjnPogP6wN3SkLfmYnt4-ioPRdgcJVALKXs_VxkC1pMQ4phjdyD3GA4YoTuGCSWiCpO7OQtZ1iNiiwbf-AzEmwr3oYQwT3vFbHQfcQwrXP6EbS9cde6RWp-ZtYfsqPXpImrr8AlP2IMIjFjjqRmP0rx2l_-0m00]--></g></svg>